# xmcd CD database file
#
# Track frame offsets:
#	182
#	14500
#	28602
#	43525
#	58817
#	73332
#	87782
#	102430
#	117970
#	133767
#	147907
#	162022
#	177057
#	192585
#	207077
#	218955
#	232435
#	246035
#	259642
#	274192
#
# Disc length: 3823 seconds
#
# Revision: 0
# Processed by: cddbd v1.5.2PL0 Copyright (c) Steve Scherf et al.
# Submitted via: CDex 1.99.1
#
DISCID=300eed14
DTITLE=Various Artist - The Piano Blues - Dallas 1927 - 1929
DYEAR=1900
DGENRE=Blues
TTITLE0=Texas Bill Day and Billiken Johnson - Elm Street Blues
TTITLE1=Whistlin' Alex Moore - Heart Wrecked Blues
TTITLE2=Billliken Johnson and Neal Roberts - Frisco Blueks
TTITLE3=Texas Bill Day - Goin' Back To My Baby
TTITLE4=Hattie Hudson - Doggone My Good Luck Soul
TTITLE5=Billiken Johnson and Fred Adams - Sun Beam Blues
TTITLE6=Whistlin' Alex Moore - Blue Bloomer Blues
TTITLE7=Bessie Tucker - Penitentiary
TTITLE8=Bessie Tucker - The Dummy
TTITLE9=Texas Bill Day - Good Mornin' Blues
TTITLE10=Whistlin' Alex Moore - They May Not Be My Toes
TTITLE11=Ida Mae Mack - When You Lose Your Daddy
TTITLE12=Ida May Mack - Elm Street Blues
TTITLE13=Texas Bill Day and Billiken Johnson - Blliken's Weary Blues
TTITLE14=Billiken Johnson and Neal Roberts - Wild Jack Blues
TTITLE15=Whistlin' Alex Moore - West Texas Woman
TTITLE16=Bobbie Cadillac - Carbolic Acid Blues
TTITLE17=Texas Bill Day - Burn The Trestle Down
TTITLE18=Billiken Johnson and Fred Adams - Interurban Blues
TTITLE19=Whistlin' Alex Moore - Ice Pick Blues
EXTD=
EXTT0=
EXTT1=
EXTT2=
EXTT3=
EXTT4=
EXTT5=
EXTT6=
EXTT7=
EXTT8=
EXTT9=
EXTT10=
EXTT11=
EXTT12=
EXTT13=
EXTT14=
EXTT15=
EXTT16=
EXTT17=
EXTT18=
EXTT19=
PLAYORDER=
